<?xml version="1.0" standalone="no"?>
<!DOCTYPE svg PUBLIC "-//W3C//DTD SVG 20010904//EN"
 "http://www.w3.org/TR/2001/REC-SVG-20010904/DTD/svg10.dtd">
<svg version="1.0" xmlns="http://www.w3.org/2000/svg"
 width="579.000000pt" height="332.000000pt" viewBox="0 0 579.000000 332.000000"
 preserveAspectRatio="xMidYMid meet">

<g transform="translate(0.000000,332.000000) scale(0.100000,-0.100000)"
fill="#000000" stroke="none">
<path d="M2200 1660 l0 -551 278 3 c267 3 279 4 330 27 64 29 125 95 146 158
19 55 21 169 4 224 -15 52 -68 112 -127 145 l-48 27 46 32 c68 47 101 116 101
209 0 125 -53 201 -172 249 -48 19 -76 21 -305 25 l-253 4 0 -552z m457 344
c16 -12 35 -40 43 -62 13 -37 13 -47 0 -84 -24 -69 -63 -88 -181 -88 l-99 0 0
123 c0 68 3 127 8 131 4 5 51 6 104 4 79 -3 103 -8 125 -24z m3 -442 c73 -36
101 -127 62 -202 -29 -55 -70 -70 -189 -70 l-103 0 0 145 0 145 98 0 c72 0
106 -4 132 -18z"/>
<path d="M2990 2115 l0 -95 160 0 160 0 0 -455 0 -455 110 0 110 0 0 455 0
455 139 0 139 0 28 83 c15 45 29 88 32 95 3 9 -88 12 -437 12 l-441 0 0 -95z"/>
<path d="M3940 1659 l0 -551 268 4 267 3 68 33 c121 60 173 162 165 321 -5 98
-29 158 -84 215 -71 73 -152 96 -339 96 l-125 0 0 120 0 120 216 2 217 3 32
93 32 92 -359 0 -358 0 0 -551z m466 -75 c54 -26 77 -73 72 -150 -3 -56 -8
-69 -34 -95 -38 -37 -83 -48 -196 -49 l-88 0 0 155 0 155 106 0 c77 0 115 -4
140 -16z"/>
</g>
</svg>
